# xmcd
#
# Track frame offsets:
# 150
# 15749
# 29214
# 44840
# 61806
# 77415
# 95543
# 106636
# 122875
# 138794
# 153773
# 166862
#
# Disc length: 2449 seconds
#
# Revision: 0
# Processed by: cddbd v1.5.2PL0 Copyright (c) Steve Scherf et al.
# Submitted via: Audion 3.0.2 (http://www.panic.com/audion/)
#
DISCID=90098f0c
DTITLE=Caín y Abel - Magia y el dueto
DYEAR=1900
DGENRE=
TTITLE0=Capullito de Alhelí
TTITLE1=Herida de amor
TTITLE2=Imágenes
TTITLE3=Noche de Luna
TTITLE4=Sacrificio
TTITLE5=Total
TTITLE6=Mi ranchito abandonado
TTITLE7=Carta perdida
TTITLE8=Modesta Ayala
TTITLE9=Camioncito flecha roja
TTITLE10=Mi segunda carta
TTITLE11=Un puño de tierra
EXTD=
EXTT0=
EXTT1=
EXTT2=
EXTT3=
EXTT4=
EXTT5=
EXTT6=
EXTT7=
EXTT8=
EXTT9=
EXTT10=
EXTT11=
PLAYORDER=
